<?xml version="1.0" standalone="no"?>
<!DOCTYPE svg PUBLIC "-//W3C//DTD SVG 20010904//EN"
 "http://www.w3.org/TR/2001/REC-SVG-20010904/DTD/svg10.dtd">
<svg version="1.0" xmlns="http://www.w3.org/2000/svg"
 width="340.000000pt" height="209.000000pt" viewBox="0 0 340.000000 209.000000"
 preserveAspectRatio="xMidYMid meet">

<g transform="translate(0.000000,209.000000) scale(0.100000,-0.100000)"
fill="#000000" stroke="none">
<path d="M120 1950 c0 -19 7 -20 215 -20 l215 0 0 -190 0 -190 -215 0 c-208 0
-215 -1 -215 -20 0 -19 7 -20 215 -20 l215 0 0 -195 0 -195 -215 0 c-208 0
-215 -1 -215 -20 0 -19 7 -20 215 -20 l215 0 0 -195 0 -195 -215 0 c-208 0
-215 -1 -215 -20 0 -19 7 -20 215 -20 l215 0 0 -195 0 -195 -215 0 c-208 0
-215 -1 -215 -20 0 -20 7 -20 1640 -20 1633 0 1640 0 1640 20 0 20 -7 20 -955
20 l-955 0 45 41 c28 26 60 71 82 116 30 61 37 87 41 153 l5 80 868 0 c862 0
869 0 869 20 0 20 -7 20 -874 20 l-873 0 -5 45 c-7 59 -48 140 -95 189 -57 58
-113 81 -203 81 -67 0 -82 -4 -134 -34 -47 -26 -61 -30 -67 -19 -9 14 -39 106
-39 120 0 4 515 8 1145 8 1138 0 1145 0 1145 20 0 20 -7 20 -1146 20 l-1145 0
6 23 c11 41 37 107 41 107 2 0 30 -15 62 -32 50 -29 66 -33 132 -32 90 0 149
23 203 79 46 48 86 128 95 192 l7 48 873 3 c864 2 872 2 872 22 0 20 -7 20
-869 20 l-868 0 -5 75 c-4 62 -12 89 -43 150 -22 43 -56 92 -81 115 l-44 40
955 0 c948 0 955 0 955 20 0 20 -7 20 -1640 20 -1633 0 -1640 0 -1640 -20z
m730 -210 l0 -190 -50 0 -50 0 0 190 0 190 50 0 50 0 0 -190z m245 171 c-71
-43 -104 -111 -91 -189 7 -48 34 -83 80 -106 75 -37 159 15 159 99 0 83 -34
115 -124 115 -46 0 -49 2 -40 19 28 52 211 91 264 56 57 -37 117 -198 117
-315 l0 -40 -270 0 -270 0 0 190 0 190 103 0 102 0 -30 -19z m-245 -596 l0
-195 -50 0 -50 0 0 195 0 195 50 0 50 0 0 -195z m606 153 c-11 -75 -39 -139
-74 -169 -28 -24 -41 -29 -88 -29 -99 0 -151 37 -182 130 l-18 53 -13 -69
c-23 -130 -92 -264 -136 -264 l-25 0 0 195 0 195 271 0 272 0 -7 -42z m-606
-583 l0 -195 -50 0 -50 0 0 195 0 195 50 0 50 0 0 -195z m147 138 c48 -88 73
-161 80 -233 l6 -65 29 65 c35 77 51 97 97 116 64 27 155 12 192 -32 21 -25
45 -88 54 -141 l7 -43 -271 0 -271 0 0 195 0 195 23 0 c17 0 30 -14 54 -57z
m-147 -568 l0 -195 -50 0 -50 0 0 195 0 195 50 0 50 0 0 -195z m610 150 c0
-121 -59 -284 -116 -322 -51 -33 -208 1 -258 56 l-19 21 56 0 c48 0 62 4 88
28 27 24 31 35 32 80 1 61 -24 96 -84 113 -31 10 -43 9 -75 -7 -117 -58 -111
-221 11 -295 l30 -19 -102 0 -103 0 0 195 0 195 270 0 270 0 0 -45z"/>
</g>
</svg>
