<?xml version="1.0" standalone="no"?>
<!DOCTYPE svg PUBLIC "-//W3C//DTD SVG 20010904//EN"
 "http://www.w3.org/TR/2001/REC-SVG-20010904/DTD/svg10.dtd">
<svg version="1.0" xmlns="http://www.w3.org/2000/svg"
 width="315.000000pt" height="207.000000pt" viewBox="0 0 315.000000 207.000000"
 preserveAspectRatio="xMidYMid meet">

<g transform="translate(0.000000,207.000000) scale(0.100000,-0.100000)"
fill="#000000" stroke="none">
<path d="M0 1880 c0 -20 7 -20 820 -20 l820 0 0 -190 0 -190 -820 0 c-813 0
-820 0 -820 -20 0 -20 7 -20 820 -20 l820 0 0 -195 0 -195 -820 0 c-813 0
-820 0 -820 -20 0 -20 7 -20 820 -20 l820 0 0 -195 0 -195 -213 0 c-152 0
-216 3 -225 12 -9 9 -12 9 -12 0 0 -9 -139 -12 -595 -12 -588 0 -595 0 -595
-20 0 -20 7 -20 591 -20 l591 0 102 -91 c55 -50 101 -95 101 -99 0 -4 -44 -47
-97 -95 -54 -48 -98 -91 -98 -96 0 -5 -258 -9 -595 -9 -588 0 -595 0 -595 -20
0 -22 -82 -21 1435 -21 1809 0 1715 -1 1715 21 0 20 -7 20 -735 20 -404 0
-735 3 -735 8 0 4 -45 47 -100 96 -55 48 -100 91 -100 95 0 5 46 49 101 100
l101 91 734 0 c727 0 734 0 734 20 0 20 -7 20 -735 20 l-735 0 0 195 0 195
735 0 c728 0 735 0 735 20 0 20 -7 20 -735 20 l-735 0 0 195 0 195 735 0 c728
0 735 0 735 20 0 20 -7 20 -735 20 l-735 0 0 190 0 190 735 0 c728 0 735 0
735 20 0 20 -7 20 -1575 20 -1568 0 -1575 0 -1575 -20z m1534 -1362 c-106
-100 -91 -99 -183 -17 -45 40 -81 73 -81 75 0 2 74 4 165 4 l166 0 -67 -62z
m20 -274 l59 -54 -179 0 c-174 0 -178 0 -159 19 11 10 51 46 88 80 l68 62 32
-27 c18 -15 59 -51 91 -80z"/>
</g>
</svg>
