<?xml version="1.0" encoding="UTF-8" standalone="no"?>
<svg
   version="1.0"
   width="210mm"
   height="297mm"
   viewBox="0 0 595.27559 841.88976"
   preserveAspectRatio="xMidYMid meet"
   id="svg828"
   sodipodi:docname="1279909.svg"
   inkscape:version="1.1 (c4e8f9e, 2021-05-24)"
   xmlns:inkscape="http://www.inkscape.org/namespaces/inkscape"
   xmlns:sodipodi="http://sodipodi.sourceforge.net/DTD/sodipodi-0.dtd"
   xmlns="http://www.w3.org/2000/svg"
   xmlns:svg="http://www.w3.org/2000/svg">
  <defs
     id="defs832" />
  <sodipodi:namedview
     id="namedview830"
     pagecolor="#505050"
     bordercolor="#eeeeee"
     borderopacity="1"
     inkscape:pageshadow="0"
     inkscape:pageopacity="0"
     inkscape:pagecheckerboard="0"
     inkscape:document-units="px"
     showgrid="false"
     inkscape:zoom="0.6394043"
     inkscape:cx="-71.941962"
     inkscape:cy="377.6953"
     inkscape:window-width="2560"
     inkscape:window-height="1387"
     inkscape:window-x="5120"
     inkscape:window-y="25"
     inkscape:window-maximized="0"
     inkscape:current-layer="g826"
     units="mm" />
  <g
     transform="matrix(0.04620783,0,0,-0.04625216,74.606444,510.76733)"
     fill="#000000"
     stroke="none"
     id="g826">
    <path
       d="m 3260.6561,5841.9342 c -42.4,-14.3911 -81.3334,-55.3693 -116.8,-122.6906 -46.6666,-88.786 -65.0667,-177.572 -57.8667,-277.0904 4,-54.6376 10.4,-94.884 28.2667,-177.3282 8,-36.0998 15.2,-69.2726 16,-73.4192 1.3333,-7.3175 -0.5334,-9.5128 -37.8666,-40.7342 -49.6,-41.71 -132.0001,-118.3001 -158.1334,-146.8385 -119.7334,-130.7398 -176.5333,-254.4061 -176.5333,-384.1703 -0.2667,-40.7342 2.6667,-63.1747 13.0667,-100.9819 48.2666,-176.3525 232.2666,-314.4099 440.5332,-330.9963 33.3333,-2.6831 97.0668,0.4879 129.8667,6.098 12,2.1952 19.2,2.4391 20.2667,0.9756 1.8666,-2.6831 11.7333,-44.1491 33.0667,-140.9844 16.2666,-72.6874 19.4666,-104.3967 14.9332,-143.4236 -5.5999,-47.8078 -21.0665,-88.2981 -46.6665,-121.227 -33.6001,-42.9295 -76.8001,-60.7355 -153.6001,-63.6625 -58.1334,-2.1953 -93.8666,6.0979 -120,27.8066 l -12,10.0006 17.3334,0.2439 c 38.1333,0 70.1332,12.4398 97.6,37.5633 29.5999,27.0749 41.5999,54.1498 41.5999,94.1522 0,34.6364 -13.6,63.1747 -41.8667,89.2739 -26.6665,24.6357 -58.1332,36.0998 -97.8665,35.8559 -37.6,-0.4878 -68.5334,-12.1959 -94.4001,-35.8559 -27.7333,-25.3674 -41.0666,-55.6132 -41.0666,-92.9326 0,-75.1267 56.7999,-153.1803 137.3333,-188.0605 38.6666,-16.8304 51.4667,-19.0256 106.6666,-19.2695 42.1333,0 50.9334,0.7317 71.7334,5.6101 56.8,13.9033 93.3333,34.3924 131.2,74.1509 39.4666,41.4661 59.7333,99.2745 59.7333,171.2302 0,38.783 -4.2666,63.9065 -30.9333,176.8404 -12.2667,52.9301 -22.4,97.0792 -22.4,98.0549 0,0.9756 8.8,6.0979 19.4666,11.4641 91.7334,46.1004 161.3334,136.8378 186.4,242.6981 4.8001,20.9769 5.8667,32.441 5.6,71.2239 0,41.9539 -0.7999,48.5396 -6.9333,70.4922 -13.8667,48.0518 -38.9333,84.3955 -87.7334,127.0811 -46.6665,40.9782 -92.7999,65.8578 -145.3333,78.2976 -22.4,5.3662 -32.5333,6.3418 -71.2,6.5858 l -45.0666,0.4878 -25.0666,104.8846 c -13.6,57.8085 -24.2667,107.3238 -23.4668,110.0069 0.8001,2.927 8.8001,13.9033 18.1334,24.3917 58.1334,66.1017 110.1333,138.3013 143.9999,200.0125 52.5334,95.8596 78.1334,183.9139 81.0667,280.5053 2.9334,90.9813 -10.9333,157.8147 -46.1332,220.5016 -22.1334,40.0025 -46.9335,64.6382 -81.0667,80.7367 -16.8,7.8054 -54.1334,9.2689 -73.8667,2.4392 z m 97.8667,-155.8634 c 11.4666,-5.1223 19.4666,-17.806 25.8666,-40.7342 7.2,-25.3675 6.4,-89.03 -1.3333,-121.7149 -16.2667,-67.5652 -61.0666,-158.7904 -99.2001,-202.2078 -18.1333,-20.4891 -108.5333,-103.4211 -110.6666,-101.4697 -2.4,2.4391 -19.4667,79.761 -24,109.519 -5.6,36.5876 -5.6,101.2258 0,133.179 13.8667,79.2733 45.6,140.0088 96,183.4261 43.4666,37.3194 86.1334,52.4423 113.3334,40.0025 z m -174.4001,-724.1915 c 19.2001,-77.3219 35.7334,-155.3756 33.3333,-157.5708 -1.3333,-1.2196 -9.3333,-4.8784 -17.5999,-7.8054 -37.0667,-13.9033 -89.0666,-50.0031 -120.8,-84.3955 -29.8667,-31.7093 -49.0667,-64.8821 -62.1333,-106.3481 -5.0667,-15.8546 -6.1334,-25.1235 -6.1334,-55.6132 -0.2667,-31.7093 0.5334,-39.0269 5.8667,-54.8815 21.6,-62.4429 70.1333,-110.2508 148.5334,-145.6188 27.9999,-12.6838 50.9332,-20.977 54.9332,-19.7574 1.6,0.4879 -2.9333,5.1223 -9.8666,10.4885 -22.6666,16.5864 -62.4,53.174 -70.1334,64.6382 -15.4666,22.1965 -17.6,33.1728 -17.6,85.3711 0.2668,54.3937 2.6667,66.8335 20.5334,98.0549 14.9333,26.3432 45.0667,52.6863 75.4666,65.6139 28.2667,12.1959 32.2667,12.1959 36.0001,0.4878 9.3333,-30.4897 93.8666,-397.5858 92.7999,-402.9519 -2.3999,-11.7081 -109.8666,-19.2695 -162.3999,-11.4642 -49.8667,7.5615 -102.1334,26.3431 -145.0667,52.1984 -25.8666,15.6107 -71.4667,58.0524 -91.4667,85.1273 -31.2,42.1977 -50.6666,83.9076 -62.3999,133.4229 -7.7334,32.9289 -8.2668,95.3718 -1.3334,125.3737 13.8667,58.7842 37.3334,99.5184 87.4667,151.9607 43.7333,45.1248 202.9333,202.4517 204.2666,201.2321 0.5333,-0.4879 4.2667,-12.9277 7.7333,-27.5627 z m 153.8667,-294.6526 c 70.6667,-11.2202 128,-47.5639 160,-101.2258 27.4666,-46.1004 32.2667,-104.3967 13.6,-164.6444 -17.6001,-56.8328 -46.9333,-94.884 -94.4,-122.9345 -15.4667,-9.2689 -17.3333,-9.7567 -19.2,-5.854 -2.6667,5.6101 -48.7999,198.549 -89.8667,374.4136 -2.6666,11.708 -4.2666,21.7087 -3.4666,22.4404 2.1334,2.1953 8.5333,1.7074 33.3333,-2.1953 z"
       id="path824"
       style="stroke-width:0.255039" />
  </g>
</svg>
