<?xml version="1.0" encoding="UTF-8" standalone="no"?>
<!-- Created with Inkscape (http://www.inkscape.org/) -->

<svg
   version="1.1"
   width="210mm"
   height="297mm"
   id="svg2"
   sodipodi:docname="2.svg"
   inkscape:version="1.1 (c4e8f9e, 2021-05-24)"
   xmlns:inkscape="http://www.inkscape.org/namespaces/inkscape"
   xmlns:sodipodi="http://sodipodi.sourceforge.net/DTD/sodipodi-0.dtd"
   xmlns="http://www.w3.org/2000/svg"
   xmlns:svg="http://www.w3.org/2000/svg"
   xmlns:rdf="http://www.w3.org/1999/02/22-rdf-syntax-ns#"
   xmlns:cc="http://creativecommons.org/ns#"
   xmlns:dc="http://purl.org/dc/elements/1.1/">
  <sodipodi:namedview
     id="namedview13"
     pagecolor="#505050"
     bordercolor="#eeeeee"
     borderopacity="1"
     inkscape:pageshadow="0"
     inkscape:pageopacity="0"
     inkscape:pagecheckerboard="0"
     showgrid="false"
     inkscape:zoom="5.4293912"
     inkscape:cx="99.734939"
     inkscape:cy="53.781352"
     inkscape:window-width="2041"
     inkscape:window-height="1126"
     inkscape:window-x="2814"
     inkscape:window-y="69"
     inkscape:window-maximized="0"
     inkscape:current-layer="svg2"
     units="mm"
     inkscape:document-units="mm" />
  <metadata
     id="metadata8">
    <rdf:RDF>
      <cc:Work
         rdf:about="">
        <dc:format>image/svg+xml</dc:format>
        <dc:type
           rdf:resource="http://purl.org/dc/dcmitype/StillImage" />
      </cc:Work>
    </rdf:RDF>
  </metadata>
  <defs
     id="defs6" />
  <g
     transform="matrix(0.65896638,0,0,0.49303658,-44.716164,-17.987415)"
     id="g3862">
    <path
       d="m 85.093708,139.34944 c -5e-6,-4.5246 2.149825,-8.52714 6.449494,-12.00763 4.299646,-3.56747 8.852228,-5.35121 13.657748,-5.35123 2.78211,2e-5 5.26916,0.73961 7.46118,2.2188 V 46.942827 h 2.78214 v 84.445033 c -4e-5,4.87267 -2.06556,8.91872 -6.19658,12.13816 -4.13107,3.21943 -8.68365,4.82916 -13.657747,4.82916 -2.782148,0 -5.227051,-0.82662 -7.334718,-2.47984 -2.107683,-1.74024 -3.161522,-3.91554 -3.161517,-6.5259 m 5.81719,3.91554 c 4.468261,0 8.978687,-1.95776 13.531292,-5.8733 4.63686,-3.91553 6.9553,-6.83042 6.95533,-8.7447 -3e-5,-1.21814 -0.50587,-1.82723 -1.51753,-1.82725 -3.11938,2e-5 -7.41904,1.87077 -12.898981,5.61227 -5.395665,3.6545 -8.09349,6.69992 -8.093481,9.13625 -9e-6,1.13116 0.674447,1.69673 2.02337,1.69673"
       id="path3859"
       style="font-style:normal;font-weight:normal;font-size:128.473px;line-height:125%;font-family:Sans;letter-spacing:0px;word-spacing:0px;fill:#000000;fill-opacity:1;stroke:none" />
  </g>
</svg>
