<?xml version="1.0" encoding="UTF-8" standalone="no"?>
<svg
   height="297mm"
   width="210mm"
   version="1.1"
   id="svg954"
   sodipodi:docname="Half_notes_and_rest.svg"
   inkscape:version="1.1 (c4e8f9e, 2021-05-24)"
   xmlns:inkscape="http://www.inkscape.org/namespaces/inkscape"
   xmlns:sodipodi="http://sodipodi.sourceforge.net/DTD/sodipodi-0.dtd"
   xmlns="http://www.w3.org/2000/svg"
   xmlns:svg="http://www.w3.org/2000/svg">
  <defs
     id="defs958" />
  <sodipodi:namedview
     id="namedview956"
     pagecolor="#505050"
     bordercolor="#eeeeee"
     borderopacity="1"
     inkscape:pageshadow="0"
     inkscape:pageopacity="0"
     inkscape:pagecheckerboard="0"
     showgrid="false"
     units="mm"
     inkscape:zoom="3.61"
     inkscape:cx="66.066482"
     inkscape:cy="57.34072"
     inkscape:window-width="2161"
     inkscape:window-height="1204"
     inkscape:window-x="2831"
     inkscape:window-y="157"
     inkscape:window-maximized="0"
     inkscape:current-layer="svg954"
     inkscape:document-units="mm" />
  <path
     d="M 138.47877,77.874829 H 137.3 V 36.791817 h 1.17877 z"
     id="path934"
     style="stroke-width:0.699402" />
  <path
     d="m 156.47458,30.442624 c 2.20036,2.987855 -0.15717,7.282898 -5.18657,9.648283 -5.02939,2.365386 -10.92322,1.86741 -13.12358,-1.120446 -2.20036,-2.987855 0.15717,-7.282897 5.18656,-9.648283 5.0294,-2.303139 10.92323,-1.805163 13.12359,1.120446 z m -17.52431,8.092108 c 0.86443,1.24494 5.26515,0.560223 9.82304,-1.556174 0.0786,0 0.0786,-0.06225 0.15717,-0.06225 0.0786,0 0.15717,-0.06225 0.15717,-0.06225 4.47931,-2.116398 7.38693,-4.793018 6.44392,-5.975711 -0.86443,-1.24494 -5.26515,-0.560223 -9.82304,1.556174 -0.0786,0 -0.0786,0.06225 -0.15717,0.06225 l -0.0786,0.06225 c -4.47931,2.054151 -7.38693,4.730772 -6.5225,5.975711 z"
     id="path936"
     style="stroke-width:0.699402" />
</svg>
