<?xml version="1.0" encoding="UTF-8" standalone="no"?>
<!-- Created with Inkscape (http://www.inkscape.org/) -->

<svg
   id="svg2"
   version="1.1"
   inkscape:version="1.1 (c4e8f9e, 2021-05-24)"
   width="210mm"
   height="297mm"
   sodipodi:docname="8.svg"
   xmlns:inkscape="http://www.inkscape.org/namespaces/inkscape"
   xmlns:sodipodi="http://sodipodi.sourceforge.net/DTD/sodipodi-0.dtd"
   xmlns="http://www.w3.org/2000/svg"
   xmlns:svg="http://www.w3.org/2000/svg"
   xmlns:rdf="http://www.w3.org/1999/02/22-rdf-syntax-ns#"
   xmlns:cc="http://creativecommons.org/ns#"
   xmlns:dc="http://purl.org/dc/elements/1.1/">
  <metadata
     id="metadata8">
    <rdf:RDF>
      <cc:Work
         rdf:about="">
        <dc:format>image/svg+xml</dc:format>
        <dc:type
           rdf:resource="http://purl.org/dc/dcmitype/StillImage" />
      </cc:Work>
    </rdf:RDF>
  </metadata>
  <defs
     id="defs6" />
  <sodipodi:namedview
     pagecolor="#ffffff"
     bordercolor="#666666"
     borderopacity="1"
     objecttolerance="10"
     gridtolerance="10"
     guidetolerance="10"
     inkscape:pageopacity="0"
     inkscape:pageshadow="2"
     inkscape:window-width="1296"
     inkscape:window-height="1081"
     id="namedview4"
     showgrid="false"
     showguides="true"
     inkscape:guide-bbox="true"
     inkscape:object-nodes="false"
     inkscape:zoom="0.7275"
     inkscape:cx="-112.71478"
     inkscape:cy="224.74227"
     inkscape:window-x="3141"
     inkscape:window-y="84"
     inkscape:window-maximized="0"
     inkscape:current-layer="svg2"
     inkscape:pagecheckerboard="0"
     units="mm"
     inkscape:document-units="mm" />
  <path
     d="m 154.82237,98.484427 c -0.037,0.277722 -0.074,8.831573 -0.11095,19.051753 l -0.037,18.60739 -2.44093,-0.16663 c -2.77377,-0.22218 -4.69692,0.72208 -6.39817,3.11049 -2.14506,3.05494 -2.44092,6.94306 -0.62873,8.38721 1.1465,0.94426 4.51202,0.72208 6.1393,-0.44435 1.73823,-1.22198 3.29155,-3.55485 3.8463,-5.77663 0.25889,-0.9998 0.40682,-7.4985 0.40682,-17.10769 v -15.49691 h 1.29443 c 1.55331,0 3.47647,2.33287 4.91883,6.05435 0.88761,2.27732 0.99856,3.11049 0.99856,7.66513 0,5.49891 0.2219,5.61 0.92459,0.4999 0.88761,-6.60978 -0.2219,-10.77562 -4.80788,-17.88531 -1.84918,-2.83277 -3.32853,-5.554446 -3.32853,-6.054346 0,-0.833168 -0.70269,-1.22198 -0.77666,-0.444357 z"
     id="path888"
     style="stroke-width:0.0453236" />
</svg>
