<?xml version="1.0" encoding="UTF-8" standalone="no"?>
<svg
   width="210mm"
   height="297mm"
   id="svg2"
   version="1.1"
   sodipodi:docname="8_flip.svg"
   inkscape:version="1.1 (c4e8f9e, 2021-05-24)"
   xmlns:inkscape="http://www.inkscape.org/namespaces/inkscape"
   xmlns:sodipodi="http://sodipodi.sourceforge.net/DTD/sodipodi-0.dtd"
   xmlns="http://www.w3.org/2000/svg"
   xmlns:svg="http://www.w3.org/2000/svg">
  <defs
     id="defs841" />
  <sodipodi:namedview
     id="namedview839"
     pagecolor="#505050"
     bordercolor="#eeeeee"
     borderopacity="1"
     inkscape:pageshadow="0"
     inkscape:pageopacity="0"
     inkscape:pagecheckerboard="0"
     showgrid="false"
     units="mm"
     inkscape:zoom="4.9504505"
     inkscape:cx="49.894449"
     inkscape:cy="73.831664"
     inkscape:window-width="2246"
     inkscape:window-height="1233"
     inkscape:window-x="2662"
     inkscape:window-y="25"
     inkscape:window-maximized="0"
     inkscape:current-layer="g2"
     inkscape:document-units="mm" />
  <g
     id="g1"
     style="stroke:#000000;stroke-width:6" />
  <g
     id="g2"
     style="fill:#000000">
    <path
       d="m 49.771037,9.171292 c -3.612903,0.7732613 -7.354838,2.81688 -9.032258,4.8605 l -1.612903,2.098852 v 21.375153 c 0,13.918703 0.258064,21.430384 0.645161,21.430384 0.387097,0 0.645161,-0.38663 0.645161,-0.828495 0,-0.44186 2.645162,-3.093042 5.935485,-5.909923 3.548387,-3.093047 6.387096,-6.075626 7.16129,-7.566916 1.677419,-3.258744 2.064516,-8.450641 0.83871,-11.930317 l -0.903226,-2.761648 -0.06452,4.418636 c -0.06452,3.36921 -0.451614,5.081432 -1.612904,7.180284 -2.451613,4.639568 -6.451613,7.345984 -9.870968,6.793652 -1.096774,-0.165699 -1.16129,-1.104657 -1.354838,-14.194867 -0.129033,-12.537881 -0.06452,-13.918705 0.838709,-13.311142 0.516129,0.386631 2.580646,0.662795 4.516129,0.662795 6.258065,-0.05523 13.225807,-4.473869 13.225807,-8.395408 0,-2.872114 -4.774193,-4.8605002 -9.354839,-3.92154 z"
       id="path912"
       style="stroke-width:0.0596942" />
  </g>
</svg>
