<?xml version="1.0" encoding="UTF-8" standalone="no"?>
<svg
   version="1.0"
   width="1083.000000pt"
   height="1300.000000pt"
   viewBox="0 0 1083.000000 1300.000000"
   preserveAspectRatio="xMidYMid meet"
   id="svg934"
   sodipodi:docname="96756636-music-note-set-vector-different-music-notes-stave-treble-and-bass-clefs-.svg"
   xmlns:inkscape="http://www.inkscape.org/namespaces/inkscape"
   xmlns:sodipodi="http://sodipodi.sourceforge.net/DTD/sodipodi-0.dtd"
   xmlns="http://www.w3.org/2000/svg"
   xmlns:svg="http://www.w3.org/2000/svg">
  <defs
     id="defs938" />
  <sodipodi:namedview
     id="namedview936"
     pagecolor="#505050"
     bordercolor="#eeeeee"
     borderopacity="1"
     inkscape:pageshadow="0"
     inkscape:pageopacity="0"
     inkscape:pagecheckerboard="0"
     inkscape:document-units="pt"
     showgrid="false" />
  <g
     transform="translate(0.000000,1300.000000) scale(0.100000,-0.100000)"
     fill="#000000"
     stroke="none"
     id="g932">
    <path
       d="M6640 7334 c-74 -13 -207 -35 -295 -49 -88 -14 -172 -28 -187 -31 l-28 -6 0 -342 0 -343 -67 4 c-61 4 -74 2 -123 -24 -135 -71 -132 -193 5 -193 66 0 151 41 182 89 23 34 23 38 23 382 l0 347 93 17 c50 9 194 33 320 54 l227 38 0 -307 0 -308 -36 13 c-72 24 -191 -21 -234 -90 -74 -120 93 -177 228 -78 62 46 62 43 62 468 0 360 -1 385 -17 384 -10 -1 -79 -12 -153 -25z"
       id="path880" />
    <path
       d="M7710 7304 c-173 -29 -318 -53 -322 -54 -5 0 -8 -155 -8 -344 l0 -343 -67 4 c-60 4 -75 1 -123 -24 -135 -69 -132 -193 5 -193 62 0 148 40 179 83 20 27 21 46 26 315 l5 287 195 32 c180 29 346 57 413 69 l27 6 0 -240 0 -240 -38 13 c-48 17 -105 7 -167 -29 -121 -72 -105 -194 25 -190 62 2 146 46 177 93 23 34 23 35 23 422 0 364 -1 389 -17 388 -10 -1 -160 -25 -333 -55z m328 -80 c-4 -3 -607 -104 -627 -104 -6 0 -11 11 -11 24 0 28 -6 26 205 60 88 14 198 33 245 41 190 34 185 33 188 7 2 -13 2 -26 0 -28z"
       id="path882" />
    <path
       d="M3940 6907 l0 -343 -59 4 c-32 2 -75 -1 -96 -8 -63 -21 -135 -98 -135 -145 0 -9 11 -27 25 -40 20 -21 34 -25 82 -25 93 1 175 51 202 123 7 18 11 162 11 403 0 326 -2 374 -15 374 -13 0 -15 -45 -15 -343z"
       id="path886" />
    <path
       d="M4599 7243 c-1 -5 -2 -159 -3 -343 l-1 -335 -66 3 c-75 4 -127 -13 -173 -56 -58 -55 -66 -125 -17 -151 31 -17 122 -13 166 8 47 22 89 64 104 104 7 18 11 135 11 308 l0 279 35 0 c42 0 94 -42 133 -109 24 -41 27 -56 27 -138 0 -99 6 -101 25 -9 24 119 -6 194 -130 322 -50 51 -90 100 -90 109 0 15 -19 22 -21 8z"
       id="path888" />
    <path
       d="M5310 6906 l0 -343 -67 4 c-79 5 -118 -8 -176 -59 -29 -25 -40 -43 -43 -73 -8 -59 10 -78 83 -83 80 -6 154 25 194 81 l29 40 0 173 0 174 24 6 c48 12 119 -48 157 -131 13 -28 19 -66 19 -125 1 -70 3 -81 12 -60 6 14 11 61 11 105 0 44 0 105 0 135 0 30 0 89 1 130 0 98 -21 139 -130 248 -46 46 -86 92 -89 102 -20 62 -25 -7 -25 -324z m127 128 c52 -40 93 -130 93 -206 0 -61 0 -62 -17 -38 -9 14 -54 64 -100 111 -66 69 -83 92 -83 116 0 16 3 33 7 36 15 16 68 5 100 -19z"
       id="path890" />
    <path
       d="M6476 5634 c-176 -29 -325 -55 -333 -58 -10 -4 -13 -71 -13 -345 l0 -339 -58 5 c-68 6 -142 -20 -188 -68 -23 -24 -36 -29 -76 -29 -26 0 -48 -4 -48 -10 0 -5 20 -10 44 -10 43 0 45 -1 44 -31 -2 -50 31 -74 100 -73 65 1 122 26 170 74 24 24 39 30 71 30 23 0 41 5 41 10 0 6 -17 10 -37 10 l-38 0 3 347 c1 191 4 348 6 350 4 5 595 103 618 103 18 0 18 -13 18 -299 l-1 -299 -62 5 c-116 10 -227 -63 -227 -147 0 -32 5 -43 26 -57 63 -41 206 -1 257 71 22 31 22 36 22 420 0 251 -4 390 -10 392 -5 1 -154 -22 -329 -52z"
       id="path894" />
    <path
       d="M7720 5634 c-173 -30 -321 -56 -328 -59 -9 -3 -13 -21 -12 -52 1 -27 1 -179 1 -339 l-1 -291 -50 5 c-69 6 -133 -14 -181 -57 -68 -62 -70 -129 -3 -157 76 -32 200 19 247 101 8 13 14 114 17 300 l5 279 310 52 c171 28 313 49 318 47 4 -2 7 -107 7 -233 l0 -229 -55 6 c-79 8 -139 -12 -193 -64 -41 -39 -51 -43 -94 -43 -26 0 -48 -4 -48 -10 0 -5 23 -10 50 -10 49 0 50 -1 50 -30 0 -42 38 -64 105 -63 57 2 98 19 156 64 27 21 48 29 78 29 23 0 41 5 41 10 0 6 -17 10 -37 10 l-38 0 0 392 c0 342 -2 393 -15 394 -8 1 -157 -23 -330 -52z m330 -59 c0 -19 -6 -25 -32 -30 -215 -37 -483 -81 -550 -90 -58 -7 -58 -7 -58 18 0 22 6 27 33 32 170 31 558 94 580 94 22 1 27 -3 27 -24z"
       id="path896" />
    <path
       d="M3950 5230 l0 -351 -22 12 c-54 29 -209 -17 -238 -71 -9 -16 -21 -20 -65 -20 -30 0 -55 -4 -55 -10 0 -5 20 -10 45 -10 43 0 45 -1 45 -28 0 -97 158 -104 262 -12 36 31 54 40 82 40 20 0 36 5 36 10 0 6 -16 10 -35 10 l-35 0 0 390 c0 253 -4 390 -10 390 -6 0 -10 -123 -10 -350z"
       id="path900" />
    <path
       d="M4600 5230 c0 -344 0 -350 -19 -340 -53 28 -177 -6 -230 -64 -20 -21 -33 -26 -73 -26 -26 0 -48 -4 -48 -10 0 -5 18 -10 40 -10 38 0 40 -2 40 -30 0 -95 165 -102 261 -10 36 34 49 40 86 40 23 0 43 5 43 10 0 6 -18 10 -40 10 l-40 0 2 293 3 292 37 3 c48 4 97 -38 135 -116 23 -48 28 -69 27 -135 -1 -105 18 -73 24 39 6 115 -20 169 -139 290 -49 50 -89 96 -89 103 0 6 -4 11 -10 11 -6 0 -10 -123 -10 -350z"
       id="path902" />
    <path
       d="M5310 5230 c0 -344 0 -350 -19 -340 -53 28 -177 -6 -230 -64 -20 -21 -33 -26 -72 -26 -26 0 -51 -4 -54 -10 -4 -6 12 -10 39 -10 40 0 46 -3 46 -21 0 -56 62 -95 134 -84 48 8 111 42 145 79 19 20 34 26 68 26 24 0 43 5 43 10 0 6 -17 10 -37 10 l-38 0 2 157 c2 87 3 165 3 174 0 26 36 29 81 6 29 -16 52 -39 78 -81 35 -57 36 -63 36 -152 0 -100 6 -102 25 -11 9 44 9 75 1 121 -8 45 -8 79 0 120 22 118 -9 196 -125 315 -46 47 -89 96 -95 109 -6 12 -16 22 -21 22 -6 0 -10 -132 -10 -350z m138 126 c54 -49 85 -118 90 -196 l3 -65 -27 33 c-14 18 -59 66 -99 105 -52 52 -73 81 -77 104 -9 64 49 73 110 19z"
       id="path904" />
    <path
       d="M3763 4011 c-57 -15 -122 -60 -143 -101 -18 -36 -20 -60 -20 -419 0 -246 4 -381 10 -381 9 0 14 283 10 593 l-1 99 33 -8 c114 -28 258 51 258 141 0 38 -28 75 -57 75 -10 0 -27 2 -38 4 -11 3 -34 1 -52 -3z"
       id="path910" />
    <path
       d="M4425 4011 c-56 -14 -114 -51 -140 -88 l-25 -38 0 -387 c0 -252 4 -388 10 -388 6 0 10 7 10 15 0 8 41 56 92 107 55 56 99 110 111 137 26 59 32 153 13 216 l-14 50 -1 -80 c-1 -61 -7 -92 -25 -130 -38 -84 -100 -133 -153 -123 -17 3 -18 20 -21 257 -2 227 -1 252 13 241 8 -7 40 -12 70 -12 97 1 205 81 205 152 0 52 -74 88 -145 71z"
       id="path912" />
    <path
       d="M5205 4011 c-53 -13 -113 -50 -139 -84 l-26 -34 0 -391 c0 -354 5 -441 24 -369 3 12 38 49 78 83 40 33 87 80 103 104 30 44 35 80 26 215 -1 17 1 57 4 90 4 40 1 75 -8 105 l-15 45 0 -71 c0 -85 -21 -133 -81 -187 -31 -28 -50 -37 -76 -37 l-35 0 0 166 c0 151 1 165 16 153 9 -8 38 -13 70 -12 138 3 258 144 174 204 -31 22 -76 29 -115 20z m43 -569 c-4 -24 -18 -60 -29 -79 -29 -46 -95 -93 -131 -93 -26 0 -28 3 -28 39 0 36 6 44 72 101 40 35 81 74 92 88 18 23 20 23 26 6 4 -10 3 -38 -2 -62z"
       id="path914" />
    <path
       d="M5970 4011 c-43 -9 -87 -32 -119 -62 -49 -46 -51 -61 -51 -462 l0 -373 193 -33 c105 -17 248 -41 317 -52 69 -11 133 -23 143 -26 16 -4 17 17 17 347 l0 350 28 -7 c112 -32 262 50 262 142 0 117 -231 89 -296 -37 -11 -22 -14 -95 -14 -368 0 -187 -2 -340 -5 -340 -8 0 -380 60 -495 80 -63 11 -118 20 -121 20 -8 0 -11 436 -3 533 6 74 7 77 28 71 59 -20 146 2 204 51 106 90 51 194 -88 166z"
       id="path916" />
    <path
       d="M7220 4011 c-71 -15 -138 -67 -159 -124 -13 -35 -15 -777 -2 -777 12 0 609 -99 639 -105 l22 -5 0 350 0 350 28 -7 c79 -23 173 7 230 72 106 120 -66 202 -206 97 -71 -52 -72 -55 -72 -365 l0 -277 -22 5 c-13 3 -93 16 -178 30 -85 13 -216 34 -292 47 l-136 22 0 239 -1 238 32 -8 c49 -12 106 -5 153 18 115 55 142 172 46 199 -20 5 -39 9 -42 9 -3 -1 -21 -4 -40 -8z m171 -821 c165 -27 302 -50 305 -50 2 0 4 -12 4 -26 0 -24 -2 -25 -37 -20 -86 13 -540 87 -563 92 -18 3 -26 12 -28 29 -1 14 3 25 8 25 6 0 146 -22 311 -50z"
       id="path918" />
    <path
       d="M3725 2321 c-22 -10 -53 -30 -68 -45 -22 -21 -38 -26 -78 -26 -37 0 -49 -4 -49 -15 0 -11 11 -15 43 -15 l42 0 -3 -390 c-2 -261 1 -390 8 -390 7 0 10 117 10 346 0 324 1 345 18 340 54 -16 76 -16 126 -2 37 11 70 30 97 56 36 34 49 40 86 40 32 0 43 4 43 15 0 11 -11 15 -40 15 -35 0 -40 3 -40 23 0 12 -4 27 -8 33 -25 37 -122 45 -187 15z"
       id="path922" />
    <path
       d="M4385 2321 c-22 -10 -54 -30 -71 -44 -25 -21 -43 -27 -78 -27 -34 0 -46 -4 -46 -15 0 -11 11 -15 40 -15 l40 0 0 -390 c0 -253 4 -390 10 -390 6 0 10 7 10 15 0 9 40 56 89 106 125 126 156 203 131 325 -18 87 -26 93 -22 16 2 -37 -1 -86 -7 -109 -25 -92 -115 -181 -169 -167 l-22 6 0 249 0 249 28 -7 c71 -20 156 4 217 61 29 28 46 36 83 38 59 4 62 22 5 26 -35 3 -43 7 -43 23 0 11 -11 31 -25 44 -20 20 -34 25 -77 25 -30 0 -71 -9 -93 -19z"
       id="path924" />
    <path
       d="M5177 2330 c-16 -5 -48 -25 -72 -44 -36 -30 -51 -36 -89 -36 -34 0 -46 -4 -46 -15 0 -11 11 -15 38 -15 l37 0 0 -351 c0 -193 1 -368 3 -390 4 -39 22 -56 22 -20 0 12 31 45 80 85 44 37 91 86 106 112 31 53 41 122 26 177 -8 27 -7 54 0 91 9 43 9 66 -2 112 l-14 59 -6 -75 c-7 -87 -23 -123 -79 -173 -31 -28 -50 -37 -76 -37 l-35 0 0 161 0 160 23 -8 c62 -22 166 8 226 66 26 25 40 31 76 31 33 0 45 4 45 15 0 11 -11 15 -40 15 -34 0 -40 3 -40 20 0 12 -11 32 -25 45 -20 21 -33 25 -77 24 -29 0 -66 -5 -81 -9z m81 -538 c-3 -44 -11 -68 -36 -104 -36 -52 -87 -88 -126 -88 -23 0 -26 4 -26 38 0 34 8 44 92 124 51 48 95 87 97 88 2 0 2 -26 -1 -58z"
       id="path926" />
    <path
       d="M5925 2321 c-22 -11 -52 -31 -67 -45 -22 -21 -37 -26 -78 -26 -38 0 -50 -4 -50 -15 0 -11 11 -15 43 -15 l42 0 -3 -390 c-1 -214 -1 -390 0 -390 2 0 71 -11 153 -25 83 -14 221 -36 308 -50 87 -14 169 -28 183 -31 l24 -6 0 352 c0 332 1 352 18 345 70 -31 157 -9 224 55 40 39 48 52 48 83 0 31 -5 41 -32 57 -62 38 -155 19 -226 -45 l-47 -43 -3 -356 c-2 -305 -5 -356 -17 -356 -16 0 -554 87 -592 95 l-23 5 0 305 c0 168 3 305 6 305 4 0 23 -5 44 -11 54 -16 134 9 192 61 38 33 53 40 87 40 30 0 41 4 41 15 0 11 -11 15 -40 15 -35 0 -40 3 -40 23 0 12 -4 27 -8 33 -25 37 -122 45 -187 15z"
       id="path928" />
    <path
       d="M7175 2321 c-22 -10 -56 -35 -75 -55 l-35 -37 -3 -394 -3 -393 28 -6 c28 -5 392 -65 528 -86 39 -6 80 -14 93 -17 l22 -5 0 352 c0 331 1 352 18 345 70 -28 152 -11 215 46 34 29 54 38 87 41 58 4 67 28 11 28 -35 0 -41 3 -41 21 0 100 -178 103 -269 5 -20 -22 -33 -26 -78 -26 -40 0 -53 -4 -53 -15 0 -11 12 -15 45 -15 l45 0 0 -281 0 -281 -27 6 c-16 3 -157 26 -315 52 l-288 47 0 240 0 239 28 -8 c75 -22 172 6 226 67 35 38 47 87 28 115 -25 37 -122 45 -187 15z m217 -801 c165 -27 305 -50 309 -50 5 0 9 -11 9 -25 0 -16 -6 -25 -15 -25 -16 0 -553 86 -592 95 -16 4 -23 13 -23 30 0 14 3 25 6 25 3 0 141 -22 306 -50z"
       id="path930" />
  </g>
</svg>
