<?xml version="1.0" encoding="UTF-8" standalone="no"?>
<!-- Created with Inkscape (http://www.inkscape.org/) -->

<svg
   version="1.0"
   width="210mm"
   height="297mm"
   id="svg2"
   sodipodi:version="0.32"
   inkscape:version="1.1 (c4e8f9e, 2021-05-24)"
   sodipodi:docname="Accolade.svg"
   inkscape:output_extension="org.inkscape.output.svg.inkscape"
   xmlns:inkscape="http://www.inkscape.org/namespaces/inkscape"
   xmlns:sodipodi="http://sodipodi.sourceforge.net/DTD/sodipodi-0.dtd"
   xmlns="http://www.w3.org/2000/svg"
   xmlns:svg="http://www.w3.org/2000/svg"
   xmlns:rdf="http://www.w3.org/1999/02/22-rdf-syntax-ns#"
   xmlns:cc="http://creativecommons.org/ns#"
   xmlns:dc="http://purl.org/dc/elements/1.1/">
  <metadata
     id="metadata20">
    <rdf:RDF>
      <cc:Work
         rdf:about="">
        <dc:format>image/svg+xml</dc:format>
        <dc:type
           rdf:resource="http://purl.org/dc/dcmitype/StillImage" />
      </cc:Work>
    </rdf:RDF>
  </metadata>
  <sodipodi:namedview
     inkscape:window-height="1305"
     inkscape:window-width="2299"
     inkscape:pageshadow="2"
     inkscape:pageopacity="0.0"
     guidetolerance="10.0"
     gridtolerance="10.0"
     objecttolerance="10.0"
     borderopacity="1.0"
     bordercolor="#666666"
     pagecolor="#ffffff"
     id="base"
     width="45px"
     height="127px"
     inkscape:zoom="1.5890411"
     inkscape:cx="-99.116379"
     inkscape:cy="129.95259"
     inkscape:window-x="0"
     inkscape:window-y="25"
     inkscape:current-layer="svg2"
     showgrid="false"
     inkscape:window-maximized="0"
     inkscape:pagecheckerboard="0"
     units="mm"
     inkscape:document-units="mm" />
  <defs
     id="defs19" />
  <path
     d="M 14.12237,19.78949 C 11.94169,22.716171 8.817607,29.563623 7.5677856,33.137773 5.6935235,40.635962 5.0687699,49.756089 5.6935235,58.559022 5.9996278,61.482433 6.6246957,67.996341 7.5677856,73.208777 9.1237113,85.598938 9.4423604,90.811374 9.4423604,96.023808 9.1237113,104.4932 6.9430322,111.3243 3.5006122,115.886 c -0.6250661,0.65074 -0.9311705,1.30147 -0.9311705,1.63502 0,0.33354 0.3061044,0.98427 0.9311705,1.63501 3.44242,4.56171 5.6230991,11.3928 5.9417482,19.545 0,5.52963 -0.3186491,10.74206 -1.8745748,22.79869 -0.9430899,5.54597 -1.5681578,12.05989 -1.8742621,14.6661 -0.6247536,9.12013 0,18.24026 1.8742621,25.4049 1.5559257,5.86317 7.1793374,15.96758 8.7474954,15.96758 0.624752,0 1.249507,-0.65075 1.249507,-1.30474 0,-0.33027 -0.624755,-1.30148 -1.249507,-2.28577 -3.748836,-5.52962 -5.316995,-11.07233 -5.941748,-19.54171 0,-5.21245 0.318336,-10.10442 1.874262,-22.48149 0.624754,-4.8789 1.249821,-10.74207 1.568156,-13.03109 1.249821,-15.63404 -1.249506,-28.9954 -7.4976724,-38.76626 -0.9434043,-1.30474 -1.5681576,-2.60622 -1.5681576,-2.60622 0,0 0.6247533,-1.30148 1.5681576,-2.60622 6.2481664,-9.77086 8.7474934,-23.132226 7.4976724,-39.099805 -0.318335,-1.95548 -0.943402,-7.818654 -1.568156,-13.027818 -1.555926,-12.046809 -1.874262,-16.93878 -1.874262,-22.151215 0.624753,-8.469391 2.192912,-14.012099 5.941748,-19.541728 1.249507,-1.955481 1.568158,-2.606218 0.943402,-3.256955 -0.943402,-0.654005 -1.568155,-0.333542 -3.136313,1.952211 z"
     style="fill:#000000;fill-rule:evenodd;stroke:#000000;stroke-width:0pt;stroke-linecap:butt;stroke-linejoin:round;stroke-miterlimit:10"
     id="path126"
     inkscape:connector-curvature="0" />
  <!--d="M 11.94922,18.866183 L 11.94922,125.11103" -->
</svg>
