<?xml version="1.0" encoding="UTF-8" standalone="no"?>
<svg
   height="210mm"
   width="297mm"
   version="1.1"
   id="svg846"
   sodipodi:docname="4_flip.svg"
   inkscape:version="1.1 (c4e8f9e, 2021-05-24)"
   xmlns:inkscape="http://www.inkscape.org/namespaces/inkscape"
   xmlns:sodipodi="http://sodipodi.sourceforge.net/DTD/sodipodi-0.dtd"
   xmlns="http://www.w3.org/2000/svg"
   xmlns:svg="http://www.w3.org/2000/svg">
  <defs
     id="defs850" />
  <sodipodi:namedview
     id="namedview848"
     pagecolor="#505050"
     bordercolor="#eeeeee"
     borderopacity="1"
     inkscape:pageshadow="0"
     inkscape:pageopacity="0"
     inkscape:pagecheckerboard="0"
     showgrid="false"
     units="mm"
     inkscape:zoom="3.6633333"
     inkscape:cx="259.87261"
     inkscape:cy="57.461328"
     inkscape:window-width="2048"
     inkscape:window-height="1197"
     inkscape:window-x="2720"
     inkscape:window-y="53"
     inkscape:window-maximized="0"
     inkscape:current-layer="svg846"
     inkscape:document-units="mm" />
  <path
     d="m 138.8,108.2 h -1.5 v -66 h 1.5 z"
     id="path826" />
  <path
     d="m 161.7,32 c 2.8,4.8 -0.2,11.7 -6.6,15.5 -6.4,3.8 -13.9,3 -16.7,-1.8 -2.8,-4.8 0.2,-11.7 6.6,-15.5 6.4,-3.7 13.9,-2.9 16.7,1.8 z"
     id="path828" />
  <path
     d="m 254.4,20.8 c 1.5,1.6 13,15.7 13,15.7 0,0 -6.4,6.1 -6.4,12.5 0,7.5 8.6,14.3 8.6,14.3 l -0.9,1.1 c -3.3,-1.9 -8.9,-2.1 -11.4,0.8 -3.1,3.6 3.9,9.1 3.9,9.1 l -0.8,1.1 C 258,73.6 247.8,64 252.1,59.3 c 2.6,-2.9 5.8,-3.8 10.3,-1.4 L 250.3,45.4 c 7,-8.6 8.2,-11.1 8.2,-13.4 0,-4.8 -3.4,-8.2 -5.1,-10.4 -0.6,-0.9 -1.7,-1.6 -1,-2.2 0.7,-0.5 1.1,0.3 2,1.4 z"
     id="path844" />
</svg>
